<svg xmlns="http://www.w3.org/2000/svg" xmlns:xlink="http://www.w3.org/1999/xlink" contentStyleType="text/css" data-diagram-type="CLASS" height="665px" preserveAspectRatio="none" style="width:1778px;height:665px;background:#FFFFFF;" version="1.1" viewBox="0 0 1778 665" width="1778px" zoomAndPan="magnify"><defs/><g><!--class TransactionType--><g id="elem_TransactionType"><rect codeLine="2" fill="#F1F1F1" height="80.5938" id="TransactionType" rx="2.5" ry="2.5" style="stroke:#181818;stroke-width:0.5;" width="148.4844" x="679" y="15"/><ellipse cx="694" cy="31" fill="#EB937F" rx="11" ry="11" style="stroke:#181818;stroke-width:1;"/><path d="M698.1094,37 L690.3906,37 L690.3906,24.6094 L698.1094,24.6094 L698.1094,26.7656 L692.8438,26.7656 L692.8438,29.4375 L697.6094,29.4375 L697.6094,31.5938 L692.8438,31.5938 L692.8438,34.8438 L698.1094,34.8438 L698.1094,37 Z " fill="#000000"/><text fill="#000000" font-family="sans-serif" font-size="14" lengthAdjust="spacing" textLength="116.4844" x="708" y="35.8467">TransactionType</text><line style="stroke:#181818;stroke-width:0.5;" x1="680" x2="826.4844" y1="47" y2="47"/><text fill="#000000" font-family="sans-serif" font-size="14" lengthAdjust="spacing" textLength="56.3213" x="685" y="63.9951">INCOME</text><text fill="#000000" font-family="sans-serif" font-size="14" lengthAdjust="spacing" textLength="63.9297" x="685" y="80.292">EXPENSE</text><line style="stroke:#181818;stroke-width:0.5;" x1="680" x2="826.4844" y1="87.5938" y2="87.5938"/></g><!--class CategoryType--><g id="elem_CategoryType"><rect codeLine="7" fill="#F1F1F1" height="80.5938" id="CategoryType" rx="2.5" ry="2.5" style="stroke:#181818;stroke-width:0.5;" width="130.2871" x="862" y="15"/><ellipse cx="877" cy="31" fill="#EB937F" rx="11" ry="11" style="stroke:#181818;stroke-width:1;"/><path d="M881.1094,37 L873.3906,37 L873.3906,24.6094 L881.1094,24.6094 L881.1094,26.7656 L875.8438,26.7656 L875.8438,29.4375 L880.6094,29.4375 L880.6094,31.5938 L875.8438,31.5938 L875.8438,34.8438 L881.1094,34.8438 L881.1094,37 Z " fill="#000000"/><text fill="#000000" font-family="sans-serif" font-size="14" lengthAdjust="spacing" textLength="98.2871" x="891" y="35.8467">CategoryType</text><line style="stroke:#181818;stroke-width:0.5;" x1="863" x2="991.2871" y1="47" y2="47"/><text fill="#000000" font-family="sans-serif" font-size="14" lengthAdjust="spacing" textLength="56.3213" x="868" y="63.9951">INCOME</text><text fill="#000000" font-family="sans-serif" font-size="14" lengthAdjust="spacing" textLength="63.9297" x="868" y="80.292">EXPENSE</text><line style="stroke:#181818;stroke-width:0.5;" x1="863" x2="991.2871" y1="87.5938" y2="87.5938"/></g><!--class Account--><g id="elem_Account"><rect codeLine="13" fill="#F1F1F1" height="129.4844" id="Account" rx="2.5" ry="2.5" style="stroke:#181818;stroke-width:0.5;" width="151.0361" x="518.5" y="529"/><ellipse cx="561.5187" cy="545" fill="#ADD1B2" rx="11" ry="11" style="stroke:#181818;stroke-width:1;"/><path d="M564.4874,550.6406 Q563.9093,550.9375 563.2687,551.0781 Q562.628,551.2344 561.9249,551.2344 Q559.4249,551.2344 558.0968,549.5938 Q556.7843,547.9375 556.7843,544.8125 Q556.7843,541.6875 558.0968,540.0313 Q559.4249,538.375 561.9249,538.375 Q562.628,538.375 563.2687,538.5313 Q563.9249,538.6875 564.4874,538.9844 L564.4874,541.7031 Q563.8624,541.125 563.2687,540.8594 Q562.6749,540.5781 562.0499,540.5781 Q560.7062,540.5781 560.0187,541.6563 Q559.3312,542.7188 559.3312,544.8125 Q559.3312,546.9063 560.0187,547.9844 Q560.7062,549.0469 562.0499,549.0469 Q562.6749,549.0469 563.2687,548.7813 Q563.8624,548.5 564.4874,547.9219 L564.4874,550.6406 Z " fill="#000000"/><text fill="#000000" font-family="sans-serif" font-size="14" lengthAdjust="spacing" textLength="56.7725" x="581.745" y="549.8467">Account</text><line style="stroke:#181818;stroke-width:0.5;" x1="519.5" x2="668.5361" y1="561" y2="561"/><text fill="#000000" font-family="sans-serif" font-size="14" lengthAdjust="spacing" textLength="52.6299" x="524.5" y="577.9951">UUID id</text><text fill="#000000" font-family="sans-serif" font-size="14" lengthAdjust="spacing" textLength="85.9346" x="524.5" y="594.292">String name</text><text fill="#000000" font-family="sans-serif" font-size="14" lengthAdjust="spacing" textLength="139.0361" x="524.5" y="610.5889">BigDecimal balance</text><text fill="#000000" font-family="sans-serif" font-size="14" lengthAdjust="spacing" textLength="107.7822" x="524.5" y="626.8857">String currency</text><text fill="#000000" font-family="sans-serif" font-size="14" lengthAdjust="spacing" textLength="77.5059" x="524.5" y="643.1826">String type</text><line style="stroke:#181818;stroke-width:0.5;" x1="519.5" x2="668.5361" y1="650.4844" y2="650.4844"/></g><!--class Category--><g id="elem_Category"><rect codeLine="21" fill="#F1F1F1" height="96.8906" id="Category" rx="2.5" ry="2.5" style="stroke:#181818;stroke-width:0.5;" width="146.0117" x="1301" y="545"/><ellipse cx="1338.5277" cy="561" fill="#ADD1B2" rx="11" ry="11" style="stroke:#181818;stroke-width:1;"/><path d="M1341.4964,566.6406 Q1340.9183,566.9375 1340.2777,567.0781 Q1339.6371,567.2344 1338.9339,567.2344 Q1336.4339,567.2344 1335.1058,565.5938 Q1333.7933,563.9375 1333.7933,560.8125 Q1333.7933,557.6875 1335.1058,556.0313 Q1336.4339,554.375 1338.9339,554.375 Q1339.6371,554.375 1340.2777,554.5313 Q1340.9339,554.6875 1341.4964,554.9844 L1341.4964,557.7031 Q1340.8714,557.125 1340.2777,556.8594 Q1339.6839,556.5781 1339.0589,556.5781 Q1337.7152,556.5781 1337.0277,557.6563 Q1336.3402,558.7188 1336.3402,560.8125 Q1336.3402,562.9063 1337.0277,563.9844 Q1337.7152,565.0469 1339.0589,565.0469 Q1339.6839,565.0469 1340.2777,564.7813 Q1340.8714,564.5 1341.4964,563.9219 L1341.4964,566.6406 Z " fill="#000000"/><text fill="#000000" font-family="sans-serif" font-size="14" lengthAdjust="spacing" textLength="63.9502" x="1357.5338" y="565.8467">Category</text><line style="stroke:#181818;stroke-width:0.5;" x1="1302" x2="1446.0117" y1="577" y2="577"/><text fill="#000000" font-family="sans-serif" font-size="14" lengthAdjust="spacing" textLength="52.6299" x="1307" y="593.9951">UUID id</text><text fill="#000000" font-family="sans-serif" font-size="14" lengthAdjust="spacing" textLength="85.9346" x="1307" y="610.292">String name</text><text fill="#000000" font-family="sans-serif" font-size="14" lengthAdjust="spacing" textLength="134.0117" x="1307" y="626.5889">CategoryType type</text><line style="stroke:#181818;stroke-width:0.5;" x1="1302" x2="1446.0117" y1="633.8906" y2="633.8906"/></g><!--class Transaction--><g id="elem_Transaction"><rect codeLine="27" fill="#F1F1F1" height="129.4844" id="Transaction" rx="2.5" ry="2.5" style="stroke:#181818;stroke-width:0.5;" width="196.6523" x="1265.5" y="323"/><ellipse cx="1318.5024" cy="339" fill="#ADD1B2" rx="11" ry="11" style="stroke:#181818;stroke-width:1;"/><path d="M1321.4712,344.6406 Q1320.8931,344.9375 1320.2524,345.0781 Q1319.6118,345.2344 1318.9087,345.2344 Q1316.4087,345.2344 1315.0806,343.5938 Q1313.7681,341.9375 1313.7681,338.8125 Q1313.7681,335.6875 1315.0806,334.0313 Q1316.4087,332.375 1318.9087,332.375 Q1319.6118,332.375 1320.2524,332.5313 Q1320.9087,332.6875 1321.4712,332.9844 L1321.4712,335.7031 Q1320.8462,335.125 1320.2524,334.8594 Q1319.6587,334.5781 1319.0337,334.5781 Q1317.6899,334.5781 1317.0024,335.6563 Q1316.3149,336.7188 1316.3149,338.8125 Q1316.3149,340.9063 1317.0024,341.9844 Q1317.6899,343.0469 1319.0337,343.0469 Q1319.6587,343.0469 1320.2524,342.7813 Q1320.8462,342.5 1321.4712,341.9219 L1321.4712,344.6406 Z " fill="#000000"/><text fill="#000000" font-family="sans-serif" font-size="14" lengthAdjust="spacing" textLength="82.1475" x="1339.0024" y="343.8467">Transaction</text><line style="stroke:#181818;stroke-width:0.5;" x1="1266.5" x2="1461.1523" y1="355" y2="355"/><text fill="#000000" font-family="sans-serif" font-size="14" lengthAdjust="spacing" textLength="52.6299" x="1271.5" y="371.9951">UUID id</text><text fill="#000000" font-family="sans-serif" font-size="14" lengthAdjust="spacing" textLength="137.9355" x="1271.5" y="388.292">BigDecimal amount</text><text fill="#000000" font-family="sans-serif" font-size="14" lengthAdjust="spacing" textLength="184.6523" x="1271.5" y="404.5889">LocalDateTime timestamp</text><text fill="#000000" font-family="sans-serif" font-size="14" lengthAdjust="spacing" textLength="124.0723" x="1271.5" y="420.8857">String description</text><text fill="#000000" font-family="sans-serif" font-size="14" lengthAdjust="spacing" textLength="152.209" x="1271.5" y="437.1826">TransactionType type</text><line style="stroke:#181818;stroke-width:0.5;" x1="1266.5" x2="1461.1523" y1="444.4844" y2="444.4844"/></g><!--class TransactionService--><g id="elem_TransactionService"><rect codeLine="36" fill="#F1F1F1" height="96.8906" id="TransactionService" rx="2.5" ry="2.5" style="stroke:#181818;stroke-width:0.5;" width="420.0371" x="947" y="165"/><ellipse cx="1085.8242" cy="181" fill="#ADD1B2" rx="11" ry="11" style="stroke:#181818;stroke-width:1;"/><path d="M1088.793,186.6406 Q1088.2148,186.9375 1087.5742,187.0781 Q1086.9336,187.2344 1086.2305,187.2344 Q1083.7305,187.2344 1082.4023,185.5938 Q1081.0898,183.9375 1081.0898,180.8125 Q1081.0898,177.6875 1082.4023,176.0313 Q1083.7305,174.375 1086.2305,174.375 Q1086.9336,174.375 1087.5742,174.5313 Q1088.2305,174.6875 1088.793,174.9844 L1088.793,177.7031 Q1088.168,177.125 1087.5742,176.8594 Q1086.9805,176.5781 1086.3555,176.5781 Q1085.0117,176.5781 1084.3242,177.6563 Q1083.6367,178.7188 1083.6367,180.8125 Q1083.6367,182.9063 1084.3242,183.9844 Q1085.0117,185.0469 1086.3555,185.0469 Q1086.9805,185.0469 1087.5742,184.7813 Q1088.168,184.5 1088.793,183.9219 L1088.793,186.6406 Z " fill="#000000"/><text fill="#000000" font-family="sans-serif" font-size="14" lengthAdjust="spacing" textLength="133.8887" x="1106.3242" y="185.8467">TransactionService</text><line style="stroke:#181818;stroke-width:0.5;" x1="948" x2="1366.0371" y1="197" y2="197"/><line style="stroke:#181818;stroke-width:0.5;" x1="948" x2="1366.0371" y1="205" y2="205"/><ellipse cx="958" cy="218.6484" fill="#84BE84" rx="3" ry="3" style="stroke:#038048;stroke-width:1;"/><text fill="#000000" font-family="sans-serif" font-size="14" lengthAdjust="spacing" textLength="229.3252" x="967" y="221.9951">processTransaction(Transaction)</text><ellipse cx="958" cy="234.9453" fill="#84BE84" rx="3" ry="3" style="stroke:#038048;stroke-width:1;"/><text fill="#000000" font-family="sans-serif" font-size="14" lengthAdjust="spacing" textLength="394.0371" x="967" y="238.292">getTransactionsByAccount(Account): List&lt;Transaction&gt;</text><ellipse cx="958" cy="251.2422" fill="#84BE84" rx="3" ry="3" style="stroke:#038048;stroke-width:1;"/><text fill="#000000" font-family="sans-serif" font-size="14" lengthAdjust="spacing" textLength="281.1006" x="967" y="254.5889">getTotalExpenses(Account): BigDecimal</text></g><!--class AccountService--><g id="elem_AccountService"><rect codeLine="42" fill="#F1F1F1" height="96.8906" id="AccountService" rx="2.5" ry="2.5" style="stroke:#181818;stroke-width:0.5;" width="248.9336" x="21.5" y="339"/><ellipse cx="87.46" cy="355" fill="#ADD1B2" rx="11" ry="11" style="stroke:#181818;stroke-width:1;"/><path d="M90.4287,360.6406 Q89.8506,360.9375 89.21,361.0781 Q88.5693,361.2344 87.8662,361.2344 Q85.3662,361.2344 84.0381,359.5938 Q82.7256,357.9375 82.7256,354.8125 Q82.7256,351.6875 84.0381,350.0313 Q85.3662,348.375 87.8662,348.375 Q88.5693,348.375 89.21,348.5313 Q89.8662,348.6875 90.4287,348.9844 L90.4287,351.7031 Q89.8037,351.125 89.21,350.8594 Q88.6162,350.5781 87.9912,350.5781 Q86.6475,350.5781 85.96,351.6563 Q85.2725,352.7188 85.2725,354.8125 Q85.2725,356.9063 85.96,357.9844 Q86.6475,359.0469 87.9912,359.0469 Q88.6162,359.0469 89.21,358.7813 Q89.8037,358.5 90.4287,357.9219 L90.4287,360.6406 Z " fill="#000000"/><text fill="#000000" font-family="sans-serif" font-size="14" lengthAdjust="spacing" textLength="108.5137" x="107.96" y="359.8467">AccountService</text><line style="stroke:#181818;stroke-width:0.5;" x1="22.5" x2="269.4336" y1="371" y2="371"/><line style="stroke:#181818;stroke-width:0.5;" x1="22.5" x2="269.4336" y1="379" y2="379"/><ellipse cx="32.5" cy="392.6484" fill="#84BE84" rx="3" ry="3" style="stroke:#038048;stroke-width:1;"/><text fill="#000000" font-family="sans-serif" font-size="14" lengthAdjust="spacing" textLength="125.7949" x="41.5" y="395.9951">createAccount(...)</text><ellipse cx="32.5" cy="408.9453" fill="#84BE84" rx="3" ry="3" style="stroke:#038048;stroke-width:1;"/><text fill="#000000" font-family="sans-serif" font-size="14" lengthAdjust="spacing" textLength="222.9336" x="41.5" y="412.292">getAccountById(UUID): Account</text><ellipse cx="32.5" cy="425.2422" fill="#84BE84" rx="3" ry="3" style="stroke:#038048;stroke-width:1;"/><text fill="#000000" font-family="sans-serif" font-size="14" lengthAdjust="spacing" textLength="209.4258" x="41.5" y="428.5889">listAccounts(): List&lt;Account&gt;</text></g><!--class CategoryService--><g id="elem_CategoryService"><rect codeLine="48" fill="#F1F1F1" height="96.8906" id="CategoryService" rx="2.5" ry="2.5" style="stroke:#181818;stroke-width:0.5;" width="263.2891" x="1497.5" y="339"/><ellipse cx="1567.0488" cy="355" fill="#ADD1B2" rx="11" ry="11" style="stroke:#181818;stroke-width:1;"/><path d="M1570.0176,360.6406 Q1569.4395,360.9375 1568.7988,361.0781 Q1568.1582,361.2344 1567.4551,361.2344 Q1564.9551,361.2344 1563.627,359.5938 Q1562.3145,357.9375 1562.3145,354.8125 Q1562.3145,351.6875 1563.627,350.0313 Q1564.9551,348.375 1567.4551,348.375 Q1568.1582,348.375 1568.7988,348.5313 Q1569.4551,348.6875 1570.0176,348.9844 L1570.0176,351.7031 Q1569.3926,351.125 1568.7988,350.8594 Q1568.2051,350.5781 1567.5801,350.5781 Q1566.2363,350.5781 1565.5488,351.6563 Q1564.8613,352.7188 1564.8613,354.8125 Q1564.8613,356.9063 1565.5488,357.9844 Q1566.2363,359.0469 1567.5801,359.0469 Q1568.2051,359.0469 1568.7988,358.7813 Q1569.3926,358.5 1570.0176,357.9219 L1570.0176,360.6406 Z " fill="#000000"/><text fill="#000000" font-family="sans-serif" font-size="14" lengthAdjust="spacing" textLength="115.6914" x="1587.5488" y="359.8467">CategoryService</text><line style="stroke:#181818;stroke-width:0.5;" x1="1498.5" x2="1759.7891" y1="371" y2="371"/><line style="stroke:#181818;stroke-width:0.5;" x1="1498.5" x2="1759.7891" y1="379" y2="379"/><ellipse cx="1508.5" cy="392.6484" fill="#84BE84" rx="3" ry="3" style="stroke:#038048;stroke-width:1;"/><text fill="#000000" font-family="sans-serif" font-size="14" lengthAdjust="spacing" textLength="132.9727" x="1517.5" y="395.9951">createCategory(...)</text><ellipse cx="1508.5" cy="408.9453" fill="#84BE84" rx="3" ry="3" style="stroke:#038048;stroke-width:1;"/><text fill="#000000" font-family="sans-serif" font-size="14" lengthAdjust="spacing" textLength="237.2891" x="1517.5" y="412.292">getCategoryById(UUID): Category</text><ellipse cx="1508.5" cy="425.2422" fill="#84BE84" rx="3" ry="3" style="stroke:#038048;stroke-width:1;"/><text fill="#000000" font-family="sans-serif" font-size="14" lengthAdjust="spacing" textLength="227.999" x="1517.5" y="428.5889">listCategories(): List&lt;Category&gt;</text></g><!--class AccountFactory--><g id="elem_AccountFactory"><rect codeLine="54" fill="#F1F1F1" height="64.2969" id="AccountFactory" rx="2.5" ry="2.5" style="stroke:#181818;stroke-width:0.5;" width="578.0293" x="305" y="355.5"/><ellipse cx="535.166" cy="371.5" fill="#ADD1B2" rx="11" ry="11" style="stroke:#181818;stroke-width:1;"/><path d="M538.1348,377.1406 Q537.5566,377.4375 536.916,377.5781 Q536.2754,377.7344 535.5723,377.7344 Q533.0723,377.7344 531.7441,376.0938 Q530.4316,374.4375 530.4316,371.3125 Q530.4316,368.1875 531.7441,366.5313 Q533.0723,364.875 535.5723,364.875 Q536.2754,364.875 536.916,365.0313 Q537.5723,365.1875 538.1348,365.4844 L538.1348,368.2031 Q537.5098,367.625 536.916,367.3594 Q536.3223,367.0781 535.6973,367.0781 Q534.3535,367.0781 533.666,368.1563 Q532.9785,369.2188 532.9785,371.3125 Q532.9785,373.4063 533.666,374.4844 Q534.3535,375.5469 535.6973,375.5469 Q536.3223,375.5469 536.916,375.2813 Q537.5098,375 538.1348,374.4219 L538.1348,377.1406 Z " fill="#000000"/><text fill="#000000" font-family="sans-serif" font-size="14" lengthAdjust="spacing" textLength="109.1973" x="555.666" y="376.3467">AccountFactory</text><line style="stroke:#181818;stroke-width:0.5;" x1="306" x2="882.0293" y1="387.5" y2="387.5"/><line style="stroke:#181818;stroke-width:0.5;" x1="306" x2="882.0293" y1="395.5" y2="395.5"/><ellipse cx="316" cy="409.1484" fill="#84BE84" rx="3" ry="3" style="stroke:#038048;stroke-width:1;"/><text fill="#000000" font-family="sans-serif" font-size="14" lengthAdjust="spacing" textLength="552.0293" x="325" y="412.4951">createAccount(type: String, name: String, initialBalance: BigDecimal): Account</text></g><!--class AccountRepository--><g id="elem_AccountRepository"><rect codeLine="59" fill="#F1F1F1" height="96.8906" id="AccountRepository" rx="2.5" ry="2.5" style="stroke:#181818;stroke-width:0.5;" width="278.4033" x="7" y="545"/><ellipse cx="76.0293" cy="561" fill="#B4A7E5" rx="11" ry="11" style="stroke:#181818;stroke-width:1;"/><path d="M71.9512,556.7656 L71.9512,554.6094 L79.3418,554.6094 L79.3418,556.7656 L76.873,556.7656 L76.873,564.8438 L79.3418,564.8438 L79.3418,567 L71.9512,567 L71.9512,564.8438 L74.4199,564.8438 L74.4199,556.7656 L71.9512,556.7656 Z " fill="#000000"/><text fill="#000000" font-family="sans-serif" font-size="14" font-style="italic" lengthAdjust="spacing" textLength="131.8447" x="96.5293" y="565.8467">AccountRepository</text><line style="stroke:#181818;stroke-width:0.5;" x1="8" x2="284.4033" y1="577" y2="577"/><line style="stroke:#181818;stroke-width:0.5;" x1="8" x2="284.4033" y1="585" y2="585"/><ellipse cx="18" cy="598.6484" fill="#84BE84" rx="3" ry="3" style="stroke:#038048;stroke-width:1;"/><text fill="#000000" font-family="sans-serif" font-size="14" lengthAdjust="spacing" textLength="166.4072" x="27" y="601.9951">save(Account): Account</text><ellipse cx="18" cy="614.9453" fill="#84BE84" rx="3" ry="3" style="stroke:#038048;stroke-width:1;"/><text fill="#000000" font-family="sans-serif" font-size="14" lengthAdjust="spacing" textLength="252.4033" x="27" y="618.292">findById(UUID): Optional&lt;Account&gt;</text><ellipse cx="18" cy="631.2422" fill="#84BE84" rx="3" ry="3" style="stroke:#038048;stroke-width:1;"/><text fill="#000000" font-family="sans-serif" font-size="14" lengthAdjust="spacing" textLength="168.7314" x="27" y="634.5889">findAll(): List&lt;Account&gt;</text></g><!--class CategoryRepository--><g id="elem_CategoryRepository"><rect codeLine="65" fill="#F1F1F1" height="96.8906" id="CategoryRepository" rx="2.5" ry="2.5" style="stroke:#181818;stroke-width:0.5;" width="285.5811" x="1486" y="545"/><ellipse cx="1555.0293" cy="561" fill="#B4A7E5" rx="11" ry="11" style="stroke:#181818;stroke-width:1;"/><path d="M1550.9512,556.7656 L1550.9512,554.6094 L1558.3418,554.6094 L1558.3418,556.7656 L1555.873,556.7656 L1555.873,564.8438 L1558.3418,564.8438 L1558.3418,567 L1550.9512,567 L1550.9512,564.8438 L1553.4199,564.8438 L1553.4199,556.7656 L1550.9512,556.7656 Z " fill="#000000"/><text fill="#000000" font-family="sans-serif" font-size="14" font-style="italic" lengthAdjust="spacing" textLength="139.0225" x="1575.5293" y="565.8467">CategoryRepository</text><line style="stroke:#181818;stroke-width:0.5;" x1="1487" x2="1770.5811" y1="577" y2="577"/><line style="stroke:#181818;stroke-width:0.5;" x1="1487" x2="1770.5811" y1="585" y2="585"/><ellipse cx="1497" cy="598.6484" fill="#84BE84" rx="3" ry="3" style="stroke:#038048;stroke-width:1;"/><text fill="#000000" font-family="sans-serif" font-size="14" lengthAdjust="spacing" textLength="180.7627" x="1506" y="601.9951">save(Category): Category</text><ellipse cx="1497" cy="614.9453" fill="#84BE84" rx="3" ry="3" style="stroke:#038048;stroke-width:1;"/><text fill="#000000" font-family="sans-serif" font-size="14" lengthAdjust="spacing" textLength="259.5811" x="1506" y="618.292">findById(UUID): Optional&lt;Category&gt;</text><ellipse cx="1497" cy="631.2422" fill="#84BE84" rx="3" ry="3" style="stroke:#038048;stroke-width:1;"/><text fill="#000000" font-family="sans-serif" font-size="14" lengthAdjust="spacing" textLength="175.9092" x="1506" y="634.5889">findAll(): List&lt;Category&gt;</text></g><!--class TransactionRepository--><g id="elem_TransactionRepository"><rect codeLine="71" fill="#F1F1F1" height="96.8906" id="TransactionRepository" rx="2.5" ry="2.5" style="stroke:#181818;stroke-width:0.5;" width="312.8154" x="917.5" y="339"/><ellipse cx="991.0479" cy="355" fill="#B4A7E5" rx="11" ry="11" style="stroke:#181818;stroke-width:1;"/><path d="M986.9697,350.7656 L986.9697,348.6094 L994.3604,348.6094 L994.3604,350.7656 L991.8916,350.7656 L991.8916,358.8438 L994.3604,358.8438 L994.3604,361 L986.9697,361 L986.9697,358.8438 L989.4385,358.8438 L989.4385,350.7656 L986.9697,350.7656 Z " fill="#000000"/><text fill="#000000" font-family="sans-serif" font-size="14" font-style="italic" lengthAdjust="spacing" textLength="157.2197" x="1011.5479" y="359.8467">TransactionRepository</text><line style="stroke:#181818;stroke-width:0.5;" x1="918.5" x2="1229.3154" y1="371" y2="371"/><line style="stroke:#181818;stroke-width:0.5;" x1="918.5" x2="1229.3154" y1="379" y2="379"/><ellipse cx="928.5" cy="392.6484" fill="#84BE84" rx="3" ry="3" style="stroke:#038048;stroke-width:1;"/><text fill="#000000" font-family="sans-serif" font-size="14" lengthAdjust="spacing" textLength="217.1572" x="937.5" y="395.9951">save(Transaction): Transaction</text><ellipse cx="928.5" cy="408.9453" fill="#84BE84" rx="3" ry="3" style="stroke:#038048;stroke-width:1;"/><text fill="#000000" font-family="sans-serif" font-size="14" lengthAdjust="spacing" textLength="286.8154" x="937.5" y="412.292">findByAccount(UUID): List&lt;Transaction&gt;</text><ellipse cx="928.5" cy="425.2422" fill="#84BE84" rx="3" ry="3" style="stroke:#038048;stroke-width:1;"/><text fill="#000000" font-family="sans-serif" font-size="14" lengthAdjust="spacing" textLength="194.1064" x="937.5" y="428.5889">findAll(): List&lt;Transaction&gt;</text></g><!--class AccountController--><g id="elem_AccountController"><rect codeLine="78" fill="#F1F1F1" height="96.8906" id="AccountController" rx="2.5" ry="2.5" style="stroke:#181818;stroke-width:0.5;" width="182.9941" x="54.5" y="165"/><ellipse cx="80.772" cy="181" fill="#ADD1B2" rx="11" ry="11" style="stroke:#181818;stroke-width:1;"/><path d="M83.7407,186.6406 Q83.1626,186.9375 82.522,187.0781 Q81.8813,187.2344 81.1782,187.2344 Q78.6782,187.2344 77.3501,185.5938 Q76.0376,183.9375 76.0376,180.8125 Q76.0376,177.6875 77.3501,176.0313 Q78.6782,174.375 81.1782,174.375 Q81.8813,174.375 82.522,174.5313 Q83.1782,174.6875 83.7407,174.9844 L83.7407,177.7031 Q83.1157,177.125 82.522,176.8594 Q81.9282,176.5781 81.3032,176.5781 Q79.9595,176.5781 79.272,177.6563 Q78.5845,178.7188 78.5845,180.8125 Q78.5845,182.9063 79.272,183.9844 Q79.9595,185.0469 81.3032,185.0469 Q81.9282,185.0469 82.522,184.7813 Q83.1157,184.5 83.7407,183.9219 L83.7407,186.6406 Z " fill="#000000"/><text fill="#000000" font-family="sans-serif" font-size="14" lengthAdjust="spacing" textLength="125.9453" x="97.2769" y="185.8467">AccountController</text><line style="stroke:#181818;stroke-width:0.5;" x1="55.5" x2="236.4941" y1="197" y2="197"/><line style="stroke:#181818;stroke-width:0.5;" x1="55.5" x2="236.4941" y1="205" y2="205"/><ellipse cx="65.5" cy="218.6484" fill="#84BE84" rx="3" ry="3" style="stroke:#038048;stroke-width:1;"/><text fill="#000000" font-family="sans-serif" font-size="14" lengthAdjust="spacing" textLength="112.4443" x="74.5" y="221.9951">createAccount()</text><ellipse cx="65.5" cy="234.9453" fill="#84BE84" rx="3" ry="3" style="stroke:#038048;stroke-width:1;"/><text fill="#000000" font-family="sans-serif" font-size="14" lengthAdjust="spacing" textLength="156.9941" x="74.5" y="238.292">getAccountById(UUID)</text><ellipse cx="65.5" cy="251.2422" fill="#84BE84" rx="3" ry="3" style="stroke:#038048;stroke-width:1;"/><text fill="#000000" font-family="sans-serif" font-size="14" lengthAdjust="spacing" textLength="95.5527" x="74.5" y="254.5889">listAccounts()</text></g><!--class CategoryController--><g id="elem_CategoryController"><rect codeLine="84" fill="#F1F1F1" height="96.8906" id="CategoryController" rx="2.5" ry="2.5" style="stroke:#181818;stroke-width:0.5;" width="190.1719" x="1534" y="165"/><ellipse cx="1560.272" cy="181" fill="#ADD1B2" rx="11" ry="11" style="stroke:#181818;stroke-width:1;"/><path d="M1563.2407,186.6406 Q1562.6626,186.9375 1562.022,187.0781 Q1561.3813,187.2344 1560.6782,187.2344 Q1558.1782,187.2344 1556.8501,185.5938 Q1555.5376,183.9375 1555.5376,180.8125 Q1555.5376,177.6875 1556.8501,176.0313 Q1558.1782,174.375 1560.6782,174.375 Q1561.3813,174.375 1562.022,174.5313 Q1562.6782,174.6875 1563.2407,174.9844 L1563.2407,177.7031 Q1562.6157,177.125 1562.022,176.8594 Q1561.4282,176.5781 1560.8032,176.5781 Q1559.4595,176.5781 1558.772,177.6563 Q1558.0845,178.7188 1558.0845,180.8125 Q1558.0845,182.9063 1558.772,183.9844 Q1559.4595,185.0469 1560.8032,185.0469 Q1561.4282,185.0469 1562.022,184.7813 Q1562.6157,184.5 1563.2407,183.9219 L1563.2407,186.6406 Z " fill="#000000"/><text fill="#000000" font-family="sans-serif" font-size="14" lengthAdjust="spacing" textLength="133.123" x="1576.7769" y="185.8467">CategoryController</text><line style="stroke:#181818;stroke-width:0.5;" x1="1535" x2="1723.1719" y1="197" y2="197"/><line style="stroke:#181818;stroke-width:0.5;" x1="1535" x2="1723.1719" y1="205" y2="205"/><ellipse cx="1545" cy="218.6484" fill="#84BE84" rx="3" ry="3" style="stroke:#038048;stroke-width:1;"/><text fill="#000000" font-family="sans-serif" font-size="14" lengthAdjust="spacing" textLength="119.6221" x="1554" y="221.9951">createCategory()</text><ellipse cx="1545" cy="234.9453" fill="#84BE84" rx="3" ry="3" style="stroke:#038048;stroke-width:1;"/><text fill="#000000" font-family="sans-serif" font-size="14" lengthAdjust="spacing" textLength="164.1719" x="1554" y="238.292">getCategoryById(UUID)</text><ellipse cx="1545" cy="251.2422" fill="#84BE84" rx="3" ry="3" style="stroke:#038048;stroke-width:1;"/><text fill="#000000" font-family="sans-serif" font-size="14" lengthAdjust="spacing" textLength="106.9482" x="1554" y="254.5889">listCategories()</text></g><!--class TransactionController--><g id="elem_TransactionController"><rect codeLine="90" fill="#F1F1F1" height="96.8906" id="TransactionController" rx="2.5" ry="2.5" style="stroke:#181818;stroke-width:0.5;" width="259.4199" x="1027.5" y="7"/><ellipse cx="1077.2998" cy="23" fill="#ADD1B2" rx="11" ry="11" style="stroke:#181818;stroke-width:1;"/><path d="M1080.2686,28.6406 Q1079.6904,28.9375 1079.0498,29.0781 Q1078.4092,29.2344 1077.7061,29.2344 Q1075.2061,29.2344 1073.8779,27.5938 Q1072.5654,25.9375 1072.5654,22.8125 Q1072.5654,19.6875 1073.8779,18.0313 Q1075.2061,16.375 1077.7061,16.375 Q1078.4092,16.375 1079.0498,16.5313 Q1079.7061,16.6875 1080.2686,16.9844 L1080.2686,19.7031 Q1079.6436,19.125 1079.0498,18.8594 Q1078.4561,18.5781 1077.8311,18.5781 Q1076.4873,18.5781 1075.7998,19.6563 Q1075.1123,20.7188 1075.1123,22.8125 Q1075.1123,24.9063 1075.7998,25.9844 Q1076.4873,27.0469 1077.8311,27.0469 Q1078.4561,27.0469 1079.0498,26.7813 Q1079.6436,26.5 1080.2686,25.9219 L1080.2686,28.6406 Z " fill="#000000"/><text fill="#000000" font-family="sans-serif" font-size="14" lengthAdjust="spacing" textLength="151.3203" x="1097.7998" y="27.8467">TransactionController</text><line style="stroke:#181818;stroke-width:0.5;" x1="1028.5" x2="1285.9199" y1="39" y2="39"/><line style="stroke:#181818;stroke-width:0.5;" x1="1028.5" x2="1285.9199" y1="47" y2="47"/><ellipse cx="1038.5" cy="60.6484" fill="#84BE84" rx="3" ry="3" style="stroke:#038048;stroke-width:1;"/><text fill="#000000" font-family="sans-serif" font-size="14" lengthAdjust="spacing" textLength="137.8193" x="1047.5" y="63.9951">createTransaction()</text><ellipse cx="1038.5" cy="76.9453" fill="#84BE84" rx="3" ry="3" style="stroke:#038048;stroke-width:1;"/><text fill="#000000" font-family="sans-serif" font-size="14" lengthAdjust="spacing" textLength="120.9277" x="1047.5" y="80.292">listTransactions()</text><ellipse cx="1038.5" cy="93.2422" fill="#84BE84" rx="3" ry="3" style="stroke:#038048;stroke-width:1;"/><text fill="#000000" font-family="sans-serif" font-size="14" lengthAdjust="spacing" textLength="233.4199" x="1047.5" y="96.5889">getTransactionsByAccount(UUID)</text></g><!--link Transaction to Account--><g id="link_Transaction_Account"><path codeLine="97" d="M1265.22,444.98 C1259.47,447.52 1253.7,449.88 1248,452 C1046.1,527.13 799.3584,566.3649 675.4884,582.7149 " fill="transparent" id="Transaction-to-Account" style="stroke:#181818;stroke-width:1;"/><polygon fill="#181818" points="669.54,583.5,678.986,586.2879,674.497,582.8457,677.9392,578.3567,669.54,583.5" style="stroke:#181818;stroke-width:1;"/><text fill="#000000" font-family="sans-serif" font-size="13" lengthAdjust="spacing" textLength="51.7905" x="1145" y="495.0669">account</text></g><!--link Transaction to Category--><g id="link_Transaction_Category"><path codeLine="98" d="M1367.12,452.21 C1368.59,482.14 1370.0168,511.2172 1371.3668,538.8072 " fill="transparent" id="Transaction-to-Category" style="stroke:#181818;stroke-width:1;"/><polygon fill="#181818" points="1371.66,544.8,1375.2154,535.6153,1371.4156,539.806,1367.2249,536.0062,1371.66,544.8" style="stroke:#181818;stroke-width:1;"/><text fill="#000000" font-family="sans-serif" font-size="13" lengthAdjust="spacing" textLength="57.4526" x="1370" y="495.0669">category</text></g><!--link AccountController to AccountService--><g id="link_AccountController_AccountService"><path codeLine="100" d="M146,262.41 C146,286.27 146,309.02 146,332.85 " fill="transparent" id="AccountController-to-AccountService" style="stroke:#181818;stroke-width:1;"/><polygon fill="#181818" points="146,338.85,150,329.85,146,333.85,142,329.85,146,338.85" style="stroke:#181818;stroke-width:1;"/></g><!--link CategoryController to CategoryService--><g id="link_CategoryController_CategoryService"><path codeLine="101" d="M1629,262.41 C1629,286.27 1629,309.02 1629,332.85 " fill="transparent" id="CategoryController-to-CategoryService" style="stroke:#181818;stroke-width:1;"/><polygon fill="#181818" points="1629,338.85,1633,329.85,1629,333.85,1625,329.85,1629,338.85" style="stroke:#181818;stroke-width:1;"/></g><!--link TransactionController to TransactionService--><g id="link_TransactionController_TransactionService"><path codeLine="102" d="M1157,104.15 C1157,123.42 1157,139.61 1157,158.87 " fill="transparent" id="TransactionController-to-TransactionService" style="stroke:#181818;stroke-width:1;"/><polygon fill="#181818" points="1157,164.87,1161,155.87,1157,159.87,1153,155.87,1157,164.87" style="stroke:#181818;stroke-width:1;"/></g><!--link AccountService to Account--><g id="link_AccountService_Account"><path codeLine="104" d="M250.47,436.07 C332.56,473.45 439.4793,522.1439 513.0193,555.6239 " fill="transparent" id="AccountService-to-Account" style="stroke:#181818;stroke-width:1;"/><polygon fill="#181818" points="518.48,558.11,511.9463,550.7404,513.9294,556.0383,508.6315,558.0214,518.48,558.11" style="stroke:#181818;stroke-width:1;"/></g><!--link CategoryService to Category--><g id="link_CategoryService_Category"><path codeLine="105" d="M1569.54,436.07 C1528.62,468.8 1479.1754,508.3621 1438.2454,541.1021 " fill="transparent" id="CategoryService-to-Category" style="stroke:#181818;stroke-width:1;"/><polygon fill="#181818" points="1433.56,544.85,1443.0867,542.3518,1437.4645,541.7268,1438.0896,536.1045,1433.56,544.85" style="stroke:#181818;stroke-width:1;"/></g><!--link TransactionService to Transaction--><g id="link_TransactionService_Transaction"><path codeLine="106" d="M1214.39,262.18 C1237,280.97 1258.6952,298.9955 1282.8852,319.0955 " fill="transparent" id="TransactionService-to-Transaction" style="stroke:#181818;stroke-width:1;"/><polygon fill="#181818" points="1287.5,322.93,1283.1342,314.1017,1283.6543,319.7346,1278.0214,320.2547,1287.5,322.93" style="stroke:#181818;stroke-width:1;"/></g><!--link AccountFactory to Account--><g id="link_AccountFactory_Account"><path codeLine="108" d="M594,419.93 C594,448.88 594,486.7 594,522.94 " fill="transparent" id="AccountFactory-to-Account" style="stroke:#181818;stroke-width:1;"/><polygon fill="#181818" points="594,528.94,598,519.94,594,523.94,590,519.94,594,528.94" style="stroke:#181818;stroke-width:1;"/></g><!--link AccountService to AccountRepository--><g id="link_AccountService_AccountRepository"><path codeLine="110" d="M146,436.07 C146,468.8 146,506.11 146,538.85 " fill="transparent" id="AccountService-to-AccountRepository" style="stroke:#181818;stroke-width:1;"/><polygon fill="#181818" points="146,544.85,150,535.85,146,539.85,142,535.85,146,544.85" style="stroke:#181818;stroke-width:1;"/></g><!--link CategoryService to CategoryRepository--><g id="link_CategoryService_CategoryRepository"><path codeLine="111" d="M1629,436.07 C1629,468.8 1629,506.11 1629,538.85 " fill="transparent" id="CategoryService-to-CategoryRepository" style="stroke:#181818;stroke-width:1;"/><polygon fill="#181818" points="1629,544.85,1633,535.85,1629,539.85,1625,535.85,1629,544.85" style="stroke:#181818;stroke-width:1;"/></g><!--link TransactionService to TransactionRepository--><g id="link_TransactionService_TransactionRepository"><path codeLine="112" d="M1133.88,262.41 C1122.37,286.27 1111.0959,309.6154 1099.6059,333.4454 " fill="transparent" id="TransactionService-to-TransactionRepository" style="stroke:#181818;stroke-width:1;"/><polygon fill="#181818" points="1097,338.85,1104.5119,332.4804,1099.1716,334.3462,1097.3058,329.0059,1097,338.85" style="stroke:#181818;stroke-width:1;"/></g><!--SRC=[XLNRZfim57pdA_mMedRp0T4gKYvKYvGD4P2ghrx76rao1jdEggZglzSaDZw0axximl5mPZmUdynGSZYz5n4LrmgL4Wk5YMQrADk6eZyHGkbXcxqdvY7vTKmEHHBzZUxWBTRqKilsAN9csfTfcIP5H3XM2gq9gQz2tpuudT8TOcVpL6Z9n0K9N57pjc6N7IMimXnzO8u5eHv2hb9IGLfVqOQ_exhtTwgU4Woa3xy75enQ05MuwlPWQlkQOBuptKfMcKxcZzAuQZpXcIeYMTErCyMnluvwXeea_vbkUvS0iA3oYv6xmzyQMHEg55YEmVEyWroe1YMrQQtZiVq_Nw8zK_eLW5RkkrfZdlnkg51K0RpVkVV9hWxK4KcD5OvliLWuGRQqQTDpt1bgUjfI1-16ZdrLiPDd2wlfoGOetHBaT3L8wcgErRupwdaTP3NPwWzZbWlMQAlTEIxjaN-_XSo_CS4qmtnp3p8q4xXmoq2U7BCYBREykorCQ2e_iTcdnUIqgHNp2XJ-ek2CW9-VJ9pXhhDR_33tdbhGclEWtvxRkH4aTuiZOn_IUsi3_0FVlG2Gqg06cFubH7ibxf2id63unse6wxV3sMQ7Ci_s-oGlKBm-feZZbihvC2BRMcXPSqvbA2KFRyFq4anJ7sxT1_znwaDP3uwxC0CSDNqlE63YvrFdhi7cUxykq-nGlAN78eA3zkLbrVymB16sKHuZ-j6-HCJbBPew3vhPKH45J8GD7IniHeUSpkEUsOqZG1kDHnKaYmApVKJHztOZ1_P-mkjlo5C50FP_BHxy3m00]--></g></svg>