<svg xmlns="http://www.w3.org/2000/svg" xmlns:xlink="http://www.w3.org/1999/xlink" contentStyleType="text/css" data-diagram-type="ACTIVITY" height="602px" preserveAspectRatio="none" style="width:628px;height:602px;background:#FFFFFF;" version="1.1" viewBox="0 0 628 602" width="628px" zoomAndPan="magnify"><defs/><g><ellipse cx="358.1826" cy="20" fill="#222222" rx="10" ry="10" style="stroke:#222222;stroke-width:1;"/><rect fill="#F1F1F1" height="33.9688" rx="12.5" ry="12.5" style="stroke:#181818;stroke-width:0.5;" width="316.7949" x="199.7852" y="50"/><text fill="#000000" font-family="sans-serif" font-size="12" lengthAdjust="spacing" textLength="296.7949" x="209.7852" y="71.1387">&#1042;&#1074;&#1086;&#1076; &#1076;&#1072;&#1085;&#1085;&#1099;&#1093; &#1076;&#1083;&#1103; &#1088;&#1077;&#1076;&#1072;&#1082;&#1090;&#1080;&#1088;&#1086;&#1074;&#1072;&#1085;&#1080;&#1103; &#1090;&#1088;&#1072;&#1085;&#1079;&#1072;&#1082;&#1094;&#1080;&#1080;</text><rect fill="#F1F1F1" height="33.9688" rx="12.5" ry="12.5" style="stroke:#181818;stroke-width:0.5;" width="162.9922" x="276.6865" y="103.9688"/><text fill="#000000" font-family="sans-serif" font-size="12" lengthAdjust="spacing" textLength="142.9922" x="286.6865" y="125.1074">&#1042;&#1072;&#1083;&#1080;&#1076;&#1072;&#1094;&#1080;&#1103; &#1080;&#1079;&#1084;&#1077;&#1085;&#1077;&#1085;&#1080;&#1081;</text><polygon fill="#F1F1F1" points="296.0417,157.9375,420.3235,157.9375,432.3235,169.9375,420.3235,181.9375,296.0417,181.9375,284.0417,169.9375,296.0417,157.9375" style="stroke:#181818;stroke-width:0.5;"/><text fill="#000000" font-family="sans-serif" font-size="11" lengthAdjust="spacing" textLength="124.2817" x="296.0417" y="173.7456">&#1048;&#1079;&#1084;&#1077;&#1085;&#1077;&#1085;&#1080;&#1103; &#1074;&#1072;&#1083;&#1080;&#1076;&#1085;&#1099;?</text><text fill="#000000" font-family="sans-serif" font-size="11" lengthAdjust="spacing" textLength="14.3462" x="269.6956" y="167.3433">&#1076;&#1072;</text><text fill="#000000" font-family="sans-serif" font-size="11" lengthAdjust="spacing" textLength="20.3672" x="432.3235" y="167.3433">&#1085;&#1077;&#1090;</text><rect fill="#F1F1F1" height="33.9688" rx="12.5" ry="12.5" style="stroke:#181818;stroke-width:0.5;" width="265.4434" x="68.9023" y="191.9375"/><text fill="#000000" font-family="sans-serif" font-size="12" lengthAdjust="spacing" textLength="245.4434" x="78.9023" y="213.0762">&#1055;&#1086;&#1083;&#1091;&#1095;&#1077;&#1085;&#1080;&#1077; &#1090;&#1077;&#1082;&#1091;&#1097;&#1077;&#1081; &#1090;&#1088;&#1072;&#1085;&#1079;&#1072;&#1082;&#1094;&#1080;&#1080; &#1080;&#1079; &#1041;&#1044;</text><rect fill="#F1F1F1" height="33.9688" rx="12.5" ry="12.5" style="stroke:#181818;stroke-width:0.5;" width="381.248" x="11" y="245.9063"/><text fill="#000000" font-family="sans-serif" font-size="12" lengthAdjust="spacing" textLength="361.248" x="21" y="267.0449">&#1042;&#1099;&#1095;&#1080;&#1089;&#1083;&#1077;&#1085;&#1080;&#1077; &#1088;&#1072;&#1079;&#1085;&#1080;&#1094;&#1099; &#1084;&#1077;&#1078;&#1076;&#1091; &#1089;&#1090;&#1072;&#1088;&#1099;&#1084; &#1080; &#1085;&#1086;&#1074;&#1099;&#1084; &#1079;&#1085;&#1072;&#1095;&#1077;&#1085;&#1080;&#1077;&#1084;</text><rect fill="#F1F1F1" height="33.9688" rx="12.5" ry="12.5" style="stroke:#181818;stroke-width:0.5;" width="207.8633" x="97.6924" y="299.875"/><text fill="#000000" font-family="sans-serif" font-size="12" lengthAdjust="spacing" textLength="187.8633" x="107.6924" y="321.0137">&#1054;&#1073;&#1085;&#1086;&#1074;&#1083;&#1077;&#1085;&#1080;&#1077; &#1090;&#1088;&#1072;&#1085;&#1079;&#1072;&#1082;&#1094;&#1080;&#1080; &#1074; &#1041;&#1044;</text><rect fill="#F1F1F1" height="33.9688" rx="12.5" ry="12.5" style="stroke:#181818;stroke-width:0.5;" width="234.8457" x="84.2012" y="353.8438"/><text fill="#000000" font-family="sans-serif" font-size="12" lengthAdjust="spacing" textLength="214.8457" x="94.2012" y="374.9824">&#1050;&#1086;&#1088;&#1088;&#1077;&#1082;&#1090;&#1080;&#1088;&#1086;&#1074;&#1082;&#1072; &#1073;&#1072;&#1083;&#1072;&#1085;&#1089;&#1072; &#1072;&#1082;&#1082;&#1072;&#1091;&#1085;&#1090;&#1072;</text><rect fill="#F1F1F1" height="33.9688" rx="12.5" ry="12.5" style="stroke:#181818;stroke-width:0.5;" width="218.5684" x="92.3398" y="407.8125"/><text fill="#000000" font-family="sans-serif" font-size="12" lengthAdjust="spacing" textLength="198.5684" x="102.3398" y="428.9512">&#1054;&#1073;&#1085;&#1086;&#1074;&#1083;&#1077;&#1085;&#1080;&#1077; &#1076;&#1072;&#1085;&#1085;&#1099;&#1093; &#1082;&#1072;&#1090;&#1077;&#1075;&#1086;&#1088;&#1080;&#1080;</text><rect fill="#F1F1F1" height="33.9688" rx="12.5" ry="12.5" style="stroke:#181818;stroke-width:0.5;" width="179.2695" x="111.9893" y="461.7813"/><text fill="#000000" font-family="sans-serif" font-size="12" lengthAdjust="spacing" textLength="159.2695" x="121.9893" y="482.9199">&#1054;&#1073;&#1085;&#1086;&#1074;&#1083;&#1077;&#1085;&#1080;&#1077; &#1082;&#1101;&#1096;&#1072; (Redis)</text><rect fill="#F1F1F1" height="33.9688" rx="12.5" ry="12.5" style="stroke:#181818;stroke-width:0.5;" width="280.6777" x="61.2852" y="515.75"/><text fill="#000000" font-family="sans-serif" font-size="12" lengthAdjust="spacing" textLength="260.6777" x="71.2852" y="536.8887">&#1054;&#1090;&#1087;&#1088;&#1072;&#1074;&#1082;&#1072; &#1087;&#1086;&#1076;&#1090;&#1074;&#1077;&#1088;&#1078;&#1076;&#1077;&#1085;&#1080;&#1103; &#1087;&#1086;&#1083;&#1100;&#1079;&#1086;&#1074;&#1072;&#1090;&#1077;&#1083;&#1102;</text><ellipse cx="201.624" cy="580.7188" fill="transparent" rx="11" ry="11" style="stroke:#222222;stroke-width:1;"/><ellipse cx="201.624" cy="580.7188" fill="#222222" rx="6" ry="6" style="stroke:#222222;stroke-width:1;"/><rect fill="#F1F1F1" height="33.9688" rx="12.5" ry="12.5" style="stroke:#181818;stroke-width:0.5;" width="204.9863" x="412.248" y="191.9375"/><text fill="#000000" font-family="sans-serif" font-size="12" lengthAdjust="spacing" textLength="184.9863" x="422.248" y="213.0762">&#1042;&#1099;&#1074;&#1086;&#1076; &#1089;&#1086;&#1086;&#1073;&#1097;&#1077;&#1085;&#1080;&#1103; &#1086;&#1073; &#1086;&#1096;&#1080;&#1073;&#1082;&#1077;</text><ellipse cx="514.7412" cy="256.9063" fill="transparent" rx="11" ry="11" style="stroke:#222222;stroke-width:1;"/><ellipse cx="514.7412" cy="256.9063" fill="#222222" rx="6" ry="6" style="stroke:#222222;stroke-width:1;"/><line style="stroke:#181818;stroke-width:1;" x1="358.1826" x2="358.1826" y1="30" y2="50"/><polygon fill="#181818" points="354.1826,40,358.1826,50,362.1826,40,358.1826,44" style="stroke:#181818;stroke-width:1;"/><line style="stroke:#181818;stroke-width:1;" x1="358.1826" x2="358.1826" y1="83.9688" y2="103.9688"/><polygon fill="#181818" points="354.1826,93.9688,358.1826,103.9688,362.1826,93.9688,358.1826,97.9688" style="stroke:#181818;stroke-width:1;"/><line style="stroke:#181818;stroke-width:1;" x1="201.624" x2="201.624" y1="225.9063" y2="245.9063"/><polygon fill="#181818" points="197.624,235.9063,201.624,245.9063,205.624,235.9063,201.624,239.9063" style="stroke:#181818;stroke-width:1;"/><line style="stroke:#181818;stroke-width:1;" x1="201.624" x2="201.624" y1="279.875" y2="299.875"/><polygon fill="#181818" points="197.624,289.875,201.624,299.875,205.624,289.875,201.624,293.875" style="stroke:#181818;stroke-width:1;"/><line style="stroke:#181818;stroke-width:1;" x1="201.624" x2="201.624" y1="333.8438" y2="353.8438"/><polygon fill="#181818" points="197.624,343.8438,201.624,353.8438,205.624,343.8438,201.624,347.8438" style="stroke:#181818;stroke-width:1;"/><line style="stroke:#181818;stroke-width:1;" x1="201.624" x2="201.624" y1="387.8125" y2="407.8125"/><polygon fill="#181818" points="197.624,397.8125,201.624,407.8125,205.624,397.8125,201.624,401.8125" style="stroke:#181818;stroke-width:1;"/><line style="stroke:#181818;stroke-width:1;" x1="201.624" x2="201.624" y1="441.7813" y2="461.7813"/><polygon fill="#181818" points="197.624,451.7813,201.624,461.7813,205.624,451.7813,201.624,455.7813" style="stroke:#181818;stroke-width:1;"/><line style="stroke:#181818;stroke-width:1;" x1="201.624" x2="201.624" y1="495.75" y2="515.75"/><polygon fill="#181818" points="197.624,505.75,201.624,515.75,205.624,505.75,201.624,509.75" style="stroke:#181818;stroke-width:1;"/><line style="stroke:#181818;stroke-width:1;" x1="201.624" x2="201.624" y1="549.7188" y2="569.7188"/><polygon fill="#181818" points="197.624,559.7188,201.624,569.7188,205.624,559.7188,201.624,563.7188" style="stroke:#181818;stroke-width:1;"/><line style="stroke:#181818;stroke-width:1;" x1="514.7412" x2="514.7412" y1="225.9063" y2="245.9063"/><polygon fill="#181818" points="510.7412,235.9063,514.7412,245.9063,518.7412,235.9063,514.7412,239.9063" style="stroke:#181818;stroke-width:1;"/><line style="stroke:#181818;stroke-width:1;" x1="284.0417" x2="201.624" y1="169.9375" y2="169.9375"/><line style="stroke:#181818;stroke-width:1;" x1="201.624" x2="201.624" y1="169.9375" y2="191.9375"/><polygon fill="#181818" points="197.624,181.9375,201.624,191.9375,205.624,181.9375,201.624,185.9375" style="stroke:#181818;stroke-width:1;"/><line style="stroke:#181818;stroke-width:1;" x1="432.3235" x2="514.7412" y1="169.9375" y2="169.9375"/><line style="stroke:#181818;stroke-width:1;" x1="514.7412" x2="514.7412" y1="169.9375" y2="191.9375"/><polygon fill="#181818" points="510.7412,181.9375,514.7412,191.9375,518.7412,181.9375,514.7412,185.9375" style="stroke:#181818;stroke-width:1;"/><line style="stroke:#181818;stroke-width:1;" x1="358.1826" x2="358.1826" y1="137.9375" y2="157.9375"/><polygon fill="#181818" points="354.1826,147.9375,358.1826,157.9375,362.1826,147.9375,358.1826,151.9375" style="stroke:#181818;stroke-width:1;"/><!--SRC=[TL9TJi9W47plARv7UWLuy0xUm8GIIGmQsmCKYA01DH8VZ0zwXLAfb9QMAypUoDclbK82QVgpqzsPsTtF3wxk0wUD1MAKM1ci4A508JDvq22NLoCX4ejdCaBAg6IoPgNwSqH0WxLDc215sh644N86h5EGcGpMs9Agi7UAJSVfzqmB7yUufiRxQZgvS4rmxGsOIJBNCQQDRth8PIpJcYgX3tvcX9xutfoqPHqOlE6zOqaMR79AlI6bzZHQjROs9Z8prjSlLZ8sCgH49A7Ci3LALkWSgaWBeiOCjfN05vPLrg70IMFnWQrFb5G9RJlDl3D4XdGw5bRJCqCIA2vZ0lHsNlHugrgYq_fHeMfVPmipUPP7QhKklMxVT-jCbkzi6xMldPuTWZ4ImfnNiycTtTISxTfJOuLpUL4YFxYzSxmRt-DckNiPkVzhgGyZkonvBUrEQpw6VD1JIhiPaePeqEtt_W00]--></g></svg>